<svg xmlns="http://www.w3.org/2000/svg" width="20" height="20" fill="none" viewBox="0 0 20 20"><g fill="#ff8893" clip-path="url(#a)"><path d="M10.586 5.313C10.586 2.406 8.219 0 5.313 0 2.406 0 0 2.406 0 5.313c0 2.707 2.102 4.921 4.727 5.214v3.575H2.969a.58.58 0 0 0-.586.585.58.58 0 0 0 .586.586h1.758v1.758a.58.58 0 0 0 .585.586.58.58 0 0 0 .586-.586v-1.758h1.758a.58.58 0 0 0 .586-.585.58.58 0 0 0-.586-.586H5.898v-3.575c2.625-.293 4.688-2.507 4.688-5.214M5.313 9.414c-2.262 0-4.141-1.84-4.141-4.101s1.879-4.141 4.14-4.141c2.262 0 4.102 1.879 4.102 4.14a4.106 4.106 0 0 1-4.101 4.102M15.273 9.473V4.387l1.348 1.336a.566.566 0 0 0 .82 0 .566.566 0 0 0 0-.82l-2.343-2.344a.566.566 0 0 0-.82 0l-2.344 2.343a.567.567 0 0 0 0 .82.566.566 0 0 0 .82 0l1.348-1.335v5.086c-2.625.293-4.688 2.507-4.688 5.214 0 2.907 2.367 5.313 5.274 5.313S20 17.594 20 14.688c0-2.708-2.102-4.922-4.727-5.215m-.585 9.355c-2.262 0-4.102-1.879-4.102-4.14a4.106 4.106 0 0 1 4.102-4.102c2.261 0 4.14 1.84 4.14 4.102 0 2.261-1.879 4.14-4.14 4.14"/></g><defs><clipPath id="a"><path fill="#fff" d="M0 0h20v20H0z"/></clipPath></defs></svg>