<svg xmlns="http://www.w3.org/2000/svg" width="682.667" height="682.667" viewBox="0 0 512 512"><path d="M306 25.1c-8.4 1.4-21.2 6.2-29.2 10.9-9 5.4-22.6 18.4-27.6 26.4-7.1 11.3-8.6 16-8.6 26.6-.1 12.6 1.1 15.6 7.9 18.5 6 2.7 10.4 7.3 14.4 15.3 5.3 10.5 10.8 13.9 21 12.9 11.6-1 21.7-8 26.1-17.9 2.7-6.1 4.1-17.4 3.3-26.8-.3-4.1-.3-7.3 0-7 1.6 1.4 4.9 18.4 5 25.5.2 19.8-9.6 30.2-31.5 33.6-7 1.1-21.4.8-25.3-.5-1.8-.6-2.3.2-5 9.1-10.3 34.8-29.6 72.5-50.7 99l-4.8 6.1 5.4 1.6c17.5 5.1 33.8 19.4 42.2 37.1 4.4 9.3 6.4 17.1 7.1 28l.6 9.1 9.5-6.3c5.2-3.5 16.5-10.2 25-15 27.4-15.6 27.9-16.5 29.3-49.3 1-25.2 1.4-29.1 4-38.8 4.8-18.1 16.4-31.4 33.9-38.8 3.6-1.5 6.6-2.8 6.8-2.9.1-.1-2.5-7-5.9-15.3-7.2-18.2-8.2-24.1-4.7-29.1 4.1-6.1 7.6-7.2 30.8-10.1 16.3-1.9 29.3-10.8 36.1-24.5 2.6-5.3 3.1-7.3 2.6-10.7-1.1-8.3-5.4-11.3-20.7-14.8-9.8-2.3-21.2-7.4-24.8-11.3-1.1-1.2-3-4.6-4.2-7.6-6.6-16.9-20.8-28.6-39.5-32.6-7.7-1.6-20-1.8-28.5-.4"/><path d="M386.5 192.7c-6.9.9-19.1 4.6-24.7 7.4-12.4 6.2-20.5 17-23.4 31.1-.9 4.1-1.9 17.3-2.4 30.3-1.1 27.5-2.5 34-9.5 43.5-4.2 5.7-10.2 9.9-32 22.5-23.5 13.5-33.3 20.4-45.3 31.9-16.9 16.3-26.2 32.4-30.4 52.6-1.7 7.9-1.9 12-1.5 24.5.4 12.9 1 16.9 4 28.5 2 7.4 5.1 17.3 6.9 22l3.4 8.5 48.2.3c26.5.1 48.2-.2 48.2-.6 0-3.4-3.6-11.5-6.6-15-4-4.8-7.2-6.7-12.7-7.7l-3.7-.7 4-4.4c8.8-9.5 15-22.3 17.5-35.9l1.3-7 .1 7.3c.1 6.6.6 8.2 5.1 17.5 5.7 11.7 9.6 25.6 10.6 38.1l.7 8.6h23.8c19.1 0 23.9-.3 23.9-1.3 0-.7-.7-3.8-1.6-6.8-2.3-7.9-8.2-13.3-16.6-15.1l-6.3-1.4-1.9-5.5c-2.6-7.7-3.1-20.7-1.2-29.9 2.9-13.5 7.1-20.5 20.4-34.3 13.5-13.8 17.4-19.3 20.3-28.7 6.1-19.5 2-56.2-8.7-77.8-6.3-12.7-6.3-12.7 13.4-13.5 16.5-.6 24.2-2.3 27.9-6 3.5-3.4 2.6-7.8-3.2-16-9.2-12.9-9.9-14.6-10.6-23.4-.8-9.7-2.8-13.8-8.5-17-2.1-1.2-6.4-2.5-9.5-2.9l-5.7-.6 1.9-3.2c1.6-2.8 5.9-17.1 5.9-19.8 0-.8-15.6-.9-21.5-.1M104.3 270.5c-26.1 4.7-50 19.7-62.6 39-25.7 39.8-16.2 96.3 22.4 133l7.4 7 .6-27.5.6-27.5-3-3.5c-1.6-1.9-4.4-6.4-6.1-10-3-6.3-3.1-6.9-3.1-20.5.1-13 .3-14.6 3.3-23.5 8.9-26.7 30.1-49.7 56.6-61.6 3.6-1.6 6.6-3.2 6.6-3.6 0-1.1-7.1-2.8-11.5-2.7-2.2 0-7.2.7-11.2 1.4"/><path d="M181 273.6c-8.7 2.2-21.3 8.9-25.3 13.3-5.6 6.2-6.6 13.9-2.6 18.7 2 2.4 8.4 1.6 16.6-2.2 10.9-5 18-7.4 22.2-7.4 14.6 0 23.3 10.8 23.5 29 .1 8-.1 9-3.7 16-2.1 4.1-10.1 16.9-17.7 28.5-24.8 37.7-29.3 50.2-23.7 66.5 4.8 14.1 17 31.1 31.1 43.2 7.3 6.4 19.3 14.5 20.1 13.7.2-.2-1.4-5.4-3.5-11.4-2-6.1-4.5-14.5-5.5-18.7-1.6-7.5-1.7-7.7-7.1-11.2-9.5-6.3-14.2-17-13.1-30 .8-9.9 7.2-22.2 23.7-46.1 15.2-21.9 19.5-29.3 22.1-37.7 6.2-19.7-4.3-45.6-23.5-58-11.1-7.1-22.2-9.2-33.6-6.2"/><path d="M127.1 315.8c-15.7 9.8-28.3 24.5-36.5 42.3-7.5 16.4-9.6 29.1-10.3 62.4-.5 21.5-.3 27.5 1.1 34.5 3.1 16.3 11.3 27.9 24.1 34 12 5.7 16.5 6.3 55.2 6.7l35.3.5-10.9-10.9c-15.4-15.4-23.8-27.6-29.2-42.4-8.5-23.3-3.5-39.5 25.9-84.2 7.9-11.9 15.2-23.8 16.4-26.4 3.7-8.3.6-19.4-5.5-20.1-1.5-.2-7.3 1.7-13.9 4.6-14 6.2-14.6 6.3-21.3 6.3-7.4 0-13.6-3-17.7-8.7-1.7-2.4-3.2-4.4-3.3-4.4s-4.3 2.6-9.4 5.8"/></svg>